<?xml version="1.0" encoding="UTF-8"?>
<svg id="Layer_2" data-name="Layer 2" xmlns="http://www.w3.org/2000/svg" viewBox="0 0 50.03 50.64">
  <defs>
    <style>
      .cls-1 {
        stroke-width: 0px;
      }
    </style>
  </defs>
  <g id="Layer_1-2" data-name="Layer 1">
    <g>
      <path class="cls-1" d="m36.94,50.64c-1.83-.08-3.55-.46-5.1-1.41-.84-.52-1.69-.98-2.65-1.17-2-.39-4-.46-6.02-.1-1.14.2-2.15.65-3.14,1.25-1.77,1.06-3.72,1.44-5.77,1.3-1.08-.07-2.13-.24-3.1-.72-2.62-1.27-3.64-4.25-2.34-7.02.68-1.45,1.55-2.82,2.36-4.21,1.75-2.99,3.79-5.78,6.04-8.4,1.13-1.31,2.32-2.59,4-3.25,1.1-.44,2.23-.7,3.42-.81,2.09-.19,4.1.06,6.04.9.85.37,1.6.88,2.26,1.55,2.37,2.4,4.32,5.13,6.25,7.88,1.36,1.94,2.64,3.94,3.69,6.06.87,1.74.87,3.54,0,5.28-.69,1.39-1.97,2.06-3.4,2.42-.83.21-1.7.29-2.55.43Zm-10.98-24.24l-.02.08c-.58.05-1.16.07-1.74.14-1.68.19-3.22.77-4.53,1.83-1.41,1.14-2.54,2.54-3.62,3.99-2.1,2.83-4.19,5.65-5.92,8.73-.51.91-1.05,1.8-1.27,2.84-.35,1.69.03,4.23,2.23,5.23.68.31,1.42.52,2.16.67,2.43.48,4.7.02,6.81-1.27.47-.29.95-.61,1.48-.75,3.69-.98,7.28-.97,10.72,1.01,2.35,1.36,4.9,1.54,7.5.73,1.63-.51,2.75-1.58,3.14-3.27.33-1.42.1-2.82-.62-4.09-.92-1.62-1.87-3.23-2.89-4.79-1.74-2.65-3.58-5.23-5.7-7.6-1.2-1.35-2.54-2.51-4.34-2.92-1.11-.26-2.26-.39-3.39-.57Z"/>
      <path class="cls-1" d="m40.23,11.03c-.07,2.54-.59,5.14-2.09,7.47-.82,1.28-1.87,2.35-3.34,2.84-1.67.55-3.27.33-4.67-.8-1.95-1.57-3.06-3.66-3.59-6.06-.65-2.97-.59-5.92.43-8.81.61-1.74,1.51-3.3,2.97-4.45,1.95-1.53,4.11-1.57,5.94-.32,1.75,1.19,2.83,2.89,3.5,4.85.57,1.65.83,3.36.83,5.29Zm-13.65.42c.08.58.18,1.72.42,2.83.42,1.95,1.18,3.77,2.59,5.25,1.82,1.9,4.2,2.16,6.31.69.87-.61,1.53-1.41,2.06-2.32,1.29-2.21,1.76-4.64,1.79-7.16.03-2.21-.49-4.32-1.43-6.32-.54-1.15-1.28-2.15-2.31-2.89-1.42-1.02-2.96-1.34-4.63-.62-1.23.52-2.06,1.48-2.76,2.55-1.49,2.26-1.98,4.8-2.04,8Z"/>
      <path class="cls-1" d="m23.82,10.69c.06,2.53-.42,4.99-1.66,7.25-.94,1.71-2.27,3.06-4.23,3.55-1.75.44-3.24-.12-4.55-1.3-1.8-1.62-2.78-3.69-3.23-6.01-.51-2.62-.48-5.24.29-7.84.5-1.67,1.22-3.21,2.43-4.44,2.03-2.08,4.61-2.65,7.13-.68.58.45,1.07,1.04,1.52,1.62,1.72,2.27,2.4,5.12,2.31,7.85Zm-.42-.76c-.13-.76-.28-2.09-.59-3.36-.46-1.82-1.28-3.48-2.73-4.75-1.94-1.69-4.18-1.74-6.22-.18-.95.73-1.6,1.69-2.12,2.74-1.53,3.08-1.81,6.32-1.15,9.66.45,2.28,1.34,4.36,3.12,5.93,1.06.94,2.33,1.35,3.76,1.14,1.45-.22,2.55-1.06,3.41-2.18,1.91-2.48,2.53-5.37,2.53-8.99Z"/>
      <path class="cls-1" d="m37.23,26.07c.06-1.78.79-3.82,1.94-5.7.92-1.51,2.1-2.79,3.64-3.7,1.18-.7,2.43-1.08,3.8-.75,1.62.4,2.53,1.55,3.06,3.04.45,1.28.4,2.61.22,3.94-.2,1.51-.69,2.92-1.41,4.25-1.12,2.05-2.6,3.76-4.75,4.78-.95.45-1.97.62-3.01.42-1.53-.3-2.4-1.37-3-2.72-.43-.99-.47-2.05-.5-3.56Zm.46.75c-.02.91.13,1.78.44,2.63.68,1.83,2.13,2.72,4.03,2.45,1.06-.15,2-.61,2.81-1.28,2.36-1.94,3.85-4.4,4.38-7.42.28-1.58.3-3.15-.37-4.66-.98-2.2-3-2.69-5.05-1.88-1.39.55-2.49,1.5-3.42,2.67-1.75,2.2-2.73,4.68-2.82,7.5Z"/>
      <path class="cls-1" d="m12.75,27.06c.02,1.04-.16,2.12-.69,3.13-.99,1.89-2.99,2.69-5.03,2-1.95-.66-3.41-1.97-4.58-3.61-1.06-1.49-1.87-3.09-2.21-4.92-.28-1.51-.37-3,.04-4.5.76-2.83,3.35-4.09,6.02-2.89,1.89.84,3.29,2.27,4.4,3.97,1.35,2.05,2.04,4.37,2.04,6.83Zm-.45-.4c-.06-2.32-.86-4.52-2.2-6.53-1.01-1.52-2.26-2.76-3.98-3.46-2.42-.99-4.62.05-5.37,2.55-.45,1.5-.33,3,0,4.5.36,1.69,1.07,3.21,2.06,4.63,1.12,1.59,2.51,2.79,4.37,3.4,2.03.66,3.82-.21,4.61-2.19.35-.89.5-1.82.51-2.9Z"/>
    </g>
  </g>
</svg>